<svg width="144" height="22" viewBox="0 0 144 22" fill="none" xmlns="http://www.w3.org/2000/svg">
<g clip-path="url(#clip0_92_296)">
<path d="M97.4737 20.084C97.4737 20.3589 97.3799 20.5918 97.1923 20.7793C97.0047 20.9669 96.7719 21.0607 96.497 21.0607C96.2221 21.0607 95.9892 20.9669 95.8016 20.7793C95.6141 20.5918 95.5203 20.3589 95.5203 20.084V5.68885C95.5203 5.47217 95.5882 5.27488 95.7272 5.10024C95.8663 4.9256 96.0442 4.8027 96.2609 4.73155C96.4776 4.67333 96.6878 4.68951 96.8915 4.77359C97.0953 4.86091 97.2538 5.00645 97.3702 5.2102L102.936 15.1261L108.502 5.2102C108.619 5.00645 108.777 4.86091 108.981 4.77359C109.184 4.68627 109.395 4.67333 109.611 4.73155C109.828 4.80593 110.003 4.92883 110.132 5.10024C110.261 5.27488 110.329 5.46893 110.329 5.68885V20.084C110.329 20.3589 110.236 20.5918 110.048 20.7793C109.86 20.9669 109.628 21.0607 109.353 21.0607C109.078 21.0607 108.845 20.9669 108.657 20.7793C108.47 20.5918 108.376 20.3589 108.376 20.084V9.45016L103.787 17.6261C103.599 17.9592 103.315 18.1273 102.939 18.1273C102.564 18.1273 102.257 17.9592 102.069 17.6261L97.4802 9.45016V20.084H97.4737Z" fill="#051314"/>
<path d="M119.045 4.79624C120.177 4.78331 121.238 4.98382 122.231 5.40426C123.224 5.8247 124.091 6.40037 124.828 7.13452C125.569 7.86544 126.151 8.72572 126.578 9.71213C127.005 10.6985 127.218 11.7561 127.218 12.8881C127.218 14.02 127.005 15.0776 126.578 16.064C126.151 17.0504 125.565 17.9042 124.828 18.6286C124.091 19.3531 123.224 19.9255 122.231 20.346C121.238 20.7664 120.177 20.9702 119.045 20.954H113.434C113.159 20.954 112.926 20.8602 112.739 20.6726C112.551 20.485 112.457 20.2522 112.457 19.9773V5.77619C112.457 5.50128 112.551 5.26843 112.739 5.08085C112.926 4.89327 113.159 4.79948 113.434 4.79948H119.045V4.79624ZM114.414 6.7529V18.9973H119.045C119.899 19.0103 120.704 18.8583 121.458 18.5413C122.212 18.2244 122.871 17.7878 123.437 17.238C124.003 16.6882 124.45 16.0381 124.776 15.291C125.103 14.5439 125.265 13.7451 125.265 12.8881C125.265 12.031 125.103 11.2322 124.776 10.4851C124.45 9.738 124.003 9.08471 123.437 8.52844C122.871 7.96893 122.212 7.53232 121.458 7.21214C120.704 6.8952 119.899 6.73996 119.045 6.75613H114.414V6.7529Z" fill="#051314"/>
<path d="M141.51 9.71222C141.51 10.2491 141.422 10.7633 141.248 11.2549C141.073 11.7465 140.831 12.196 140.52 12.6035C140.21 13.011 139.838 13.3603 139.411 13.6579C138.984 13.9554 138.515 14.1753 138.007 14.3209L141.031 19.5828C141.16 19.8286 141.193 20.0809 141.128 20.3331C141.063 20.5854 140.908 20.7859 140.659 20.9314C140.514 21.0188 140.355 21.0608 140.18 21.0608C140.006 21.0608 139.844 21.0188 139.692 20.9314C139.54 20.8441 139.42 20.7212 139.333 20.5628L135.831 14.5181H130.656V20.0841C130.656 20.359 130.562 20.5919 130.375 20.7794C130.187 20.967 129.954 21.0608 129.679 21.0608C129.404 21.0608 129.171 20.967 128.984 20.7794C128.796 20.5919 128.703 20.359 128.703 20.0841V5.79568C128.703 5.52077 128.796 5.28792 128.984 5.10034C129.171 4.91276 129.404 4.81897 129.679 4.81897H130.352C130.785 4.81897 131.342 4.81573 132.014 4.80926C132.687 4.80279 133.431 4.79956 134.243 4.79956H136.636C137.318 4.79956 137.955 4.92569 138.55 5.18119C139.146 5.43345 139.66 5.78597 140.093 6.23552C140.527 6.68506 140.873 7.20576 141.125 7.80084C141.377 8.39592 141.506 9.03305 141.506 9.71545L141.51 9.71222ZM139.553 9.68958C139.553 9.28531 139.475 8.90368 139.323 8.54793C139.171 8.19217 138.964 7.88169 138.702 7.61326C138.44 7.34483 138.133 7.13461 137.778 6.9826C137.422 6.8306 137.04 6.75298 136.636 6.75298H130.656V12.5583H136.636C137.027 12.5583 137.399 12.4806 137.755 12.3286C138.111 12.1766 138.418 11.9696 138.68 11.7077C138.942 11.4457 139.152 11.1417 139.31 10.7957C139.469 10.4464 139.55 10.0777 139.55 9.68634L139.553 9.68958Z" fill="#051314"/>
<path d="M1.02522 8.5382C1.70762 7.30599 2.6617 6.35516 3.8842 5.69216C5.1067 5.02916 6.50709 4.69604 8.08211 4.69604C10.1131 4.69604 11.8208 5.25232 13.205 6.36163C14.5892 7.47094 15.4818 9.02332 15.8796 11.0156H9.95791C9.61509 9.97092 8.95209 9.45023 7.96568 9.45023C7.26387 9.45023 6.7076 9.7413 6.3001 10.317C5.8926 10.8959 5.68885 11.7465 5.68885 12.8655C5.68885 13.9845 5.8926 14.8383 6.3001 15.4269C6.7076 16.0155 7.26387 16.3098 7.96568 16.3098C8.9715 16.3098 9.6345 15.7891 9.95791 14.7445H15.8796C15.4818 16.7173 14.5892 18.2633 13.205 19.3855C11.8208 20.5045 10.1131 21.064 8.08211 21.064C6.50709 21.064 5.1067 20.7309 3.8842 20.0679C2.6617 19.4049 1.70762 18.4541 1.02522 17.2219C0.342819 15.9897 0 14.5375 0 12.8687C0 11.1999 0.342819 9.77688 1.02522 8.54143V8.5382Z" fill="#070F3F"/>
<path d="M23.1403 0V21.0639H17.5614V0H23.1403Z" fill="#070F3F"/>
<path d="M25.6855 8.5382C26.2838 7.30599 27.0988 6.35516 28.1338 5.69216C29.1687 5.02916 30.32 4.69604 31.5911 4.69604C32.6907 4.69604 33.6415 4.91273 34.4371 5.34934C35.2327 5.78595 35.8504 6.37456 36.287 7.11518V4.69604H41.8659V21.0608H36.287V18.6416C35.8504 19.3823 35.2295 19.9709 34.4209 20.4075C33.6156 20.8441 32.6713 21.0608 31.5878 21.0608C30.3168 21.0608 29.1622 20.7277 28.1305 20.0647C27.0956 19.4017 26.2806 18.4476 25.6823 17.2057C25.084 15.9638 24.7864 14.5149 24.7864 12.8655C24.7864 11.2161 25.084 9.77364 25.6823 8.5382H25.6855ZM35.4494 10.4463C34.8899 9.85773 34.201 9.56342 33.386 9.56342C32.571 9.56342 31.8595 9.85449 31.3097 10.4302C30.7599 11.0091 30.485 11.8209 30.485 12.8622C30.485 13.9036 30.7599 14.6992 31.3097 15.2943C31.8595 15.8926 32.5516 16.1902 33.386 16.1902C34.2204 16.1902 34.8899 15.8959 35.4494 15.3073C36.0089 14.7186 36.2903 13.9036 36.2903 12.859C36.2903 11.8144 36.0089 11.0285 35.4494 10.4399V10.4463Z" fill="#070F3F"/>
<path d="M70.032 6.57508C71.1802 7.79111 71.7526 9.45023 71.7526 11.5557V21.0608H66.1737V12.293C66.1737 11.4392 65.9376 10.7762 65.4622 10.3008C64.9868 9.82539 64.3432 9.5893 63.5282 9.5893C62.7132 9.5893 62.0664 9.82539 61.5942 10.3008C61.1188 10.7762 60.8827 11.4392 60.8827 12.293V21.0608H55.3038V12.293C55.3038 11.4392 55.0709 10.7762 54.6052 10.3008C54.1395 9.82539 53.4991 9.5893 52.6841 9.5893C51.8691 9.5893 51.1932 9.82539 50.721 10.3008C50.2456 10.7762 50.0095 11.4392 50.0095 12.293V21.0608H44.4306V4.69604H50.0095V7.00199C50.5043 6.31958 51.1447 5.77301 51.9306 5.36551C52.7165 4.95801 53.6253 4.75426 54.6472 4.75426C55.8245 4.75426 56.8723 5.00976 57.7941 5.52398C58.7126 6.03498 59.4402 6.75619 59.9706 7.68762C60.5398 6.81441 61.2902 6.10936 62.2184 5.56603C63.1466 5.02593 64.1718 4.75426 65.2908 4.75426C67.3024 4.75426 68.8807 5.36228 70.0288 6.57508H70.032Z" fill="#070F3F"/>
<path d="M74.1556 8.5382C74.7539 7.30599 75.5689 6.35516 76.6038 5.69216C77.6387 5.02916 78.7901 4.69604 80.0611 4.69604C81.1607 4.69604 82.1115 4.91273 82.9071 5.34934C83.7027 5.78595 84.3205 6.37456 84.7571 7.11518V4.69604H90.336V21.0608H84.7571V18.6416C84.3205 19.3823 83.6995 19.9709 82.891 20.4075C82.0857 20.8441 81.1413 21.0608 80.0579 21.0608C78.7868 21.0608 77.6323 20.7277 76.6006 20.0647C75.5656 19.4017 74.7506 18.4476 74.1523 17.2057C73.554 15.9638 73.2565 14.5149 73.2565 12.8655C73.2565 11.2161 73.554 9.77364 74.1523 8.5382H74.1556ZM83.9194 10.4463C83.3599 9.85773 82.671 9.56342 81.856 9.56342C81.041 9.56342 80.3295 9.85449 79.7797 10.4302C79.2299 11.0091 78.955 11.8209 78.955 12.8622C78.955 13.9036 79.2299 14.6992 79.7797 15.2943C80.3295 15.8926 81.0216 16.1902 81.856 16.1902C82.6905 16.1902 83.3599 15.8959 83.9194 15.3073C84.4789 14.7186 84.7603 13.9036 84.7603 12.859C84.7603 11.8144 84.4789 11.0285 83.9194 10.4399V10.4463Z" fill="#070F3F"/>
<path d="M142.755 2.54517C142.891 2.54517 143.023 2.57105 143.146 2.62279C143.266 2.67454 143.373 2.74569 143.466 2.83948C143.56 2.93327 143.631 3.04 143.683 3.15966C143.735 3.28256 143.761 3.41516 143.761 3.55099C143.761 3.68682 143.735 3.81942 143.683 3.94232C143.631 4.06198 143.56 4.16871 143.466 4.2625C143.373 4.35629 143.266 4.42744 143.146 4.47919C143.023 4.53093 142.891 4.55681 142.755 4.55681C142.619 4.55681 142.486 4.53093 142.364 4.47919C142.244 4.42744 142.137 4.35629 142.043 4.2625C141.95 4.16871 141.878 4.06198 141.827 3.94232C141.775 3.81942 141.749 3.68682 141.749 3.55099C141.749 3.41516 141.775 3.28256 141.827 3.15966C141.878 3.04 141.95 2.93327 142.043 2.83948C142.137 2.74569 142.244 2.67454 142.364 2.62279C142.486 2.57105 142.619 2.54517 142.755 2.54517ZM142.755 2.30908C142.066 2.30908 141.51 2.86535 141.51 3.55423C141.51 4.2431 142.066 4.79937 142.755 4.79937C143.444 4.79937 144 4.2431 144 3.55423C144 2.86535 143.444 2.30908 142.755 2.30908Z" fill="#051314"/>
<path d="M142.532 4.14938H142.228V2.92041H142.871C142.959 2.92041 143.036 2.93982 143.104 2.97862C143.172 3.01743 143.224 3.06918 143.256 3.13386C143.292 3.19855 143.308 3.2697 143.308 3.35055C143.308 3.43464 143.289 3.50902 143.247 3.57694C143.205 3.64486 143.15 3.69337 143.075 3.72571L143.305 4.14615H142.965L142.758 3.77746H142.532V4.14615V4.14938ZM142.532 3.20178V3.50256H142.842C142.888 3.50256 142.926 3.48962 142.955 3.46375C142.985 3.43787 142.998 3.4023 142.998 3.35378C142.998 3.30527 142.981 3.2697 142.952 3.24059C142.923 3.21472 142.884 3.19855 142.839 3.19855H142.529L142.532 3.20178Z" fill="#051314"/>
<path d="M106.332 4.74774C106.594 4.86093 106.704 5.16817 106.575 5.42044L105.853 6.84022L103.399 11.216C103.298 11.3939 103.146 11.4844 102.946 11.4844C102.745 11.4844 102.58 11.3939 102.48 11.216L100.025 6.84022L99.2751 5.43661C99.136 5.17788 99.2525 4.8577 99.5241 4.74774L99.5662 4.73157C99.7958 4.63778 100.058 4.73157 100.177 4.94825L102.946 9.87708L105.708 4.95796C105.831 4.73803 106.099 4.64748 106.332 4.74774Z" fill="#31869B"/>
</g>
<defs>
<clipPath id="clip0_92_296">
<rect width="144" height="21.0639" fill="white"/>
</clipPath>
</defs>
</svg>
