<svg width="446" height="66" viewBox="0 0 446 66" fill="none" xmlns="http://www.w3.org/2000/svg">
<g clip-path="url(#clip0_25_116)">
<path d="M301.39 62.1C301.39 62.95 301.1 63.67 300.52 64.25C299.94 64.83 299.22 65.12 298.37 65.12C297.52 65.12 296.8 64.83 296.22 64.25C295.64 63.67 295.35 62.95 295.35 62.1V17.59C295.35 16.92 295.56 16.31 295.99 15.77C296.42 15.23 296.97 14.85 297.64 14.63C298.31 14.45 298.96 14.5 299.59 14.76C300.22 15.03 300.71 15.48 301.07 16.11L318.28 46.77L335.49 16.11C335.85 15.48 336.34 15.03 336.97 14.76C337.6 14.49 338.25 14.45 338.92 14.63C339.59 14.86 340.13 15.24 340.53 15.77C340.93 16.31 341.14 16.91 341.14 17.59V62.1C341.14 62.95 340.85 63.67 340.27 64.25C339.69 64.83 338.97 65.12 338.12 65.12C337.27 65.12 336.55 64.83 335.97 64.25C335.39 63.67 335.1 62.95 335.1 62.1V29.22L320.91 54.5C320.33 55.53 319.45 56.05 318.29 56.05C317.13 56.05 316.18 55.53 315.6 54.5L301.41 29.22V62.1H301.39Z" fill="white"/>
<path d="M368.09 14.83C371.59 14.79 374.87 15.41 377.94 16.71C381.01 18.01 383.69 19.79 385.97 22.06C388.26 24.32 390.06 26.98 391.38 30.03C392.7 33.08 393.36 36.35 393.36 39.85C393.36 43.35 392.7 46.62 391.38 49.67C390.06 52.72 388.25 55.36 385.97 57.6C383.69 59.84 381.01 61.61 377.94 62.91C374.87 64.21 371.59 64.84 368.09 64.79H350.74C349.89 64.79 349.17 64.5 348.59 63.92C348.01 63.34 347.72 62.62 347.72 61.77V17.86C347.72 17.01 348.01 16.29 348.59 15.71C349.17 15.13 349.89 14.84 350.74 14.84H368.09V14.83ZM353.77 20.88V58.74H368.09C370.73 58.78 373.22 58.31 375.55 57.33C377.88 56.35 379.92 55 381.67 53.3C383.42 51.6 384.8 49.59 385.81 47.28C386.82 44.97 387.32 42.5 387.32 39.85C387.32 37.2 386.82 34.73 385.81 32.42C384.8 30.11 383.42 28.09 381.67 26.37C379.92 24.64 377.88 23.29 375.55 22.3C373.22 21.32 370.73 20.84 368.09 20.89H353.77V20.88Z" fill="white"/>
<path d="M437.55 30.03C437.55 31.69 437.28 33.28 436.74 34.8C436.2 36.32 435.45 37.71 434.49 38.97C433.53 40.23 432.38 41.31 431.06 42.23C429.74 43.15 428.29 43.83 426.72 44.28L436.07 60.55C436.47 61.31 436.57 62.09 436.37 62.87C436.17 63.65 435.69 64.27 434.92 64.72C434.47 64.99 433.98 65.12 433.44 65.12C432.9 65.12 432.4 64.99 431.93 64.72C431.46 64.45 431.09 64.07 430.82 63.58L419.99 44.89H403.99V62.1C403.99 62.95 403.7 63.67 403.12 64.25C402.54 64.83 401.82 65.12 400.97 65.12C400.12 65.12 399.4 64.83 398.82 64.25C398.24 63.67 397.95 62.95 397.95 62.1V17.92C397.95 17.07 398.24 16.35 398.82 15.77C399.4 15.19 400.12 14.9 400.97 14.9H403.05C404.39 14.9 406.11 14.89 408.19 14.87C410.27 14.85 412.57 14.84 415.08 14.84H422.48C424.59 14.84 426.56 15.23 428.4 16.02C430.24 16.8 431.83 17.89 433.17 19.28C434.51 20.67 435.58 22.28 436.36 24.12C437.14 25.96 437.54 27.93 437.54 30.04L437.55 30.03ZM431.5 29.96C431.5 28.71 431.26 27.53 430.79 26.43C430.32 25.33 429.68 24.37 428.87 23.54C428.06 22.71 427.11 22.06 426.01 21.59C424.91 21.12 423.73 20.88 422.48 20.88H403.99V38.83H422.48C423.69 38.83 424.84 38.59 425.94 38.12C427.04 37.65 427.99 37.01 428.8 36.2C429.61 35.39 430.26 34.45 430.75 33.38C431.24 32.3 431.49 31.16 431.49 29.95L431.5 29.96Z" fill="white"/>
<path d="M3.17 26.4C5.28 22.59 8.23 19.65 12.01 17.6C15.79 15.55 20.12 14.52 24.99 14.52C31.27 14.52 36.55 16.24 40.83 19.67C45.11 23.1 47.87 27.9 49.1 34.06H30.79C29.73 30.83 27.68 29.22 24.63 29.22C22.46 29.22 20.74 30.12 19.48 31.9C18.22 33.69 17.59 36.32 17.59 39.78C17.59 43.24 18.22 45.88 19.48 47.7C20.74 49.52 22.46 50.43 24.63 50.43C27.74 50.43 29.79 48.82 30.79 45.59H49.1C47.87 51.69 45.11 56.47 40.83 59.94C36.55 63.4 31.27 65.13 24.99 65.13C20.12 65.13 15.79 64.1 12.01 62.05C8.23 60 5.28 57.06 3.17 53.25C1.06 49.44 0 44.95 0 39.79C0 34.63 1.06 30.23 3.17 26.41V26.4Z" fill="#AFD2D8"/>
<path d="M71.55 0V65.13H54.3V0H71.55Z" fill="#AFD2D8"/>
<path d="M79.42 26.4C81.27 22.59 83.79 19.65 86.99 17.6C90.19 15.55 93.75 14.52 97.68 14.52C101.08 14.52 104.02 15.19 106.48 16.54C108.94 17.89 110.85 19.71 112.2 22V14.52H129.45V65.12H112.2V57.64C110.85 59.93 108.93 61.75 106.43 63.1C103.94 64.45 101.02 65.12 97.67 65.12C93.74 65.12 90.17 64.09 86.98 62.04C83.78 59.99 81.26 57.04 79.41 53.2C77.56 49.36 76.64 44.88 76.64 39.78C76.64 34.68 77.56 30.22 79.41 26.4H79.42ZM109.61 32.3C107.88 30.48 105.75 29.57 103.23 29.57C100.71 29.57 98.51 30.47 96.81 32.25C95.11 34.04 94.26 36.55 94.26 39.77C94.26 42.99 95.11 45.45 96.81 47.29C98.51 49.14 100.65 50.06 103.23 50.06C105.81 50.06 107.88 49.15 109.61 47.33C111.34 45.51 112.21 42.99 112.21 39.76C112.21 36.53 111.34 34.1 109.61 32.28V32.3Z" fill="#AFD2D8"/>
<path d="M216.54 20.33C220.09 24.09 221.86 29.22 221.86 35.73V65.12H204.61V38.01C204.61 35.37 203.88 33.32 202.41 31.85C200.94 30.38 198.95 29.65 196.43 29.65C193.91 29.65 191.91 30.38 190.45 31.85C188.98 33.32 188.25 35.37 188.25 38.01V65.12H171V38.01C171 35.37 170.28 33.32 168.84 31.85C167.4 30.38 165.42 29.65 162.9 29.65C160.38 29.65 158.29 30.38 156.83 31.85C155.36 33.32 154.63 35.37 154.63 38.01V65.12H137.38V14.52H154.63V21.65C156.16 19.54 158.14 17.85 160.57 16.59C163 15.33 165.81 14.7 168.97 14.7C172.61 14.7 175.85 15.49 178.7 17.08C181.54 18.66 183.79 20.89 185.43 23.77C187.19 21.07 189.51 18.89 192.38 17.21C195.25 15.54 198.42 14.7 201.88 14.7C208.1 14.7 212.98 16.58 216.53 20.33H216.54Z" fill="#AFD2D8"/>
<path d="M229.29 26.4C231.14 22.59 233.66 19.65 236.86 17.6C240.06 15.55 243.62 14.52 247.55 14.52C250.95 14.52 253.89 15.19 256.35 16.54C258.81 17.89 260.72 19.71 262.07 22V14.52H279.32V65.12H262.07V57.64C260.72 59.93 258.8 61.75 256.3 63.1C253.81 64.45 250.89 65.12 247.54 65.12C243.61 65.12 240.04 64.09 236.85 62.04C233.65 59.99 231.13 57.04 229.28 53.2C227.43 49.36 226.51 44.88 226.51 39.78C226.51 34.68 227.43 30.22 229.28 26.4H229.29ZM259.48 32.3C257.75 30.48 255.62 29.57 253.1 29.57C250.58 29.57 248.38 30.47 246.68 32.25C244.98 34.04 244.13 36.55 244.13 39.77C244.13 42.99 244.98 45.45 246.68 47.29C248.38 49.14 250.52 50.06 253.1 50.06C255.68 50.06 257.75 49.15 259.48 47.33C261.21 45.51 262.08 42.99 262.08 39.76C262.08 36.53 261.21 34.1 259.48 32.28V32.3Z" fill="#AFD2D8"/>
<path d="M441.4 7.87C441.82 7.87 442.23 7.95 442.61 8.11C442.98 8.27 443.31 8.49 443.6 8.78C443.89 9.07 444.11 9.4 444.27 9.77C444.43 10.15 444.51 10.56 444.51 10.98C444.51 11.4 444.43 11.81 444.27 12.19C444.11 12.56 443.89 12.89 443.6 13.18C443.31 13.47 442.98 13.69 442.61 13.85C442.23 14.01 441.82 14.09 441.4 14.09C440.98 14.09 440.57 14.01 440.19 13.85C439.82 13.69 439.49 13.47 439.2 13.18C438.91 12.89 438.69 12.56 438.53 12.19C438.37 11.81 438.29 11.4 438.29 10.98C438.29 10.56 438.37 10.15 438.53 9.77C438.69 9.4 438.91 9.07 439.2 8.78C439.49 8.49 439.82 8.27 440.19 8.11C440.57 7.95 440.98 7.87 441.4 7.87ZM441.4 7.14C439.27 7.14 437.55 8.86 437.55 10.99C437.55 13.12 439.27 14.84 441.4 14.84C443.53 14.84 445.25 13.12 445.25 10.99C445.25 8.86 443.53 7.14 441.4 7.14Z" fill="white"/>
<path d="M440.71 12.83H439.77V9.03H441.76C442.03 9.03 442.27 9.09 442.48 9.21C442.69 9.33 442.85 9.49 442.95 9.69C443.06 9.89 443.11 10.11 443.11 10.36C443.11 10.62 443.05 10.85 442.92 11.06C442.79 11.27 442.62 11.42 442.39 11.52L443.1 12.82H442.05L441.41 11.68H440.71V12.82V12.83ZM440.71 9.9V10.83H441.67C441.81 10.83 441.93 10.79 442.02 10.71C442.11 10.63 442.15 10.52 442.15 10.37C442.15 10.22 442.1 10.11 442.01 10.02C441.92 9.94 441.8 9.89 441.66 9.89H440.7L440.71 9.9Z" fill="white"/>
<path d="M328.78 14.68C329.59 15.03 329.93 15.98 329.53 16.76L327.3 21.15L319.71 34.68C319.4 35.23 318.93 35.51 318.31 35.51C317.69 35.51 317.18 35.23 316.87 34.68L309.28 21.15L306.96 16.81C306.53 16.01 306.89 15.02 307.73 14.68L307.86 14.63C308.57 14.34 309.38 14.63 309.75 15.3L318.31 30.54L326.85 15.33C327.23 14.65 328.06 14.37 328.78 14.68Z" fill="#0AB7C9"/>
</g>
<defs>
<clipPath id="clip0_25_116">
<rect width="445.25" height="65.13" fill="white"/>
</clipPath>
</defs>
</svg>
