<svg width="81" height="72" viewBox="0 0 81 72" fill="none" xmlns="http://www.w3.org/2000/svg">
<g clip-path="url(#clip0_34_748)">
<path d="M47.091 72C45.7673 71.5166 44.4488 71.008 43.3838 70.0564C42.6015 69.3559 41.8395 68.6201 41.1561 67.8262C40.1329 66.6361 38.8942 65.841 37.3817 65.4321C35.7157 64.9827 34.0523 64.5208 32.3964 64.0337C32.0731 63.939 31.7917 63.703 31.4912 63.5326C31.7257 63.231 31.9083 62.8536 32.2075 62.6441C32.8427 62.1986 33.5401 61.8427 34.2095 61.4451C35.9363 60.4203 36.8327 58.9815 36.8289 56.9066C36.8086 42.6512 36.834 28.3946 36.8454 14.1392C36.8454 13.8729 36.8454 13.6066 36.8454 13.3681C35.1249 13.4249 33.4855 13.536 31.8462 13.5246C25.0352 13.4766 18.8049 9.08455 16.4721 2.69583C16.2464 2.0774 16.1551 1.39713 16.0955 0.738319C16.074 0.502307 16.2794 0.176686 16.481 0.0214487C16.5811 -0.0555391 16.945 0.114844 17.1276 0.253674C18.4778 1.29238 19.7939 2.37399 21.1556 3.39882C24.2352 5.71476 27.784 6.67774 31.5774 6.70424C39.1706 6.75725 46.7651 6.72191 54.3596 6.71939C56.5492 6.71939 58.5474 6.07824 60.3934 4.92216C61.9871 3.92258 62.2407 3.9819 62.881 5.71855C64.1184 9.08329 65.3102 12.4644 66.5096 15.8431C66.6237 16.1649 66.6605 16.5145 66.7733 17.0395C66.2357 16.8603 65.8566 16.7732 65.5118 16.613C64.0601 15.9403 62.6401 15.1994 61.1693 14.5709C58.0174 13.223 54.707 12.9087 51.3168 13.1977C49.9728 13.3126 48.6276 13.4249 47.2824 13.5271C46.9426 13.5524 46.736 13.6357 46.7385 14.0408C46.7537 17.085 46.7537 20.1291 46.7601 23.1733C46.7601 23.2124 46.7854 23.2516 46.7994 23.2894C48.8597 23.7577 50.7158 22.4337 50.9199 20.3601C50.9668 19.8805 51.0277 19.4009 51.1203 18.9289C51.1672 18.6878 51.2635 18.4392 51.4017 18.2373C51.7162 17.7804 52.0826 17.3096 52.7254 17.4661C53.32 17.6113 53.4912 18.1413 53.5672 18.679C53.6192 19.0513 53.6484 19.4312 53.6484 19.8073C53.6534 23.4813 53.6649 27.1552 53.637 30.8292C53.6306 31.748 53.5495 32.6769 53.3771 33.578C53.3073 33.944 52.9663 34.4299 52.6404 34.5372C52.0902 34.7177 51.583 34.3252 51.3954 33.8052C51.1291 33.0631 50.906 32.2844 50.8248 31.5044C50.6765 30.101 50.0984 29.1834 48.208 28.8351C47.7363 28.748 47.252 28.7354 46.7575 28.6874V55.4653C47.2317 55.1586 47.5867 54.9516 47.9189 54.7106C49.3478 53.6756 50.4458 52.3542 51.1786 50.7627C53.8373 44.9886 56.4947 39.2133 59.1053 33.4177C61.1731 28.8275 63.17 24.2045 65.2126 19.6016C65.4002 19.1775 65.6817 18.7951 65.92 18.3938C65.9898 18.4013 66.0595 18.4089 66.1292 18.4165C66.27 18.7055 66.4398 18.9832 66.5476 19.2835C68.1236 23.7085 69.7046 28.1308 71.259 32.5633C73.3421 38.4989 75.4252 44.4346 77.4614 50.3854C78.1105 52.2823 79.1946 53.8637 80.5639 55.2924C81.128 55.8818 81.1331 56.1771 80.6272 56.5381C80.4586 56.658 80.2012 56.7009 79.9844 56.6996C75.6395 56.6832 71.2945 56.658 66.9483 56.6176C66.7112 56.6151 66.4741 56.4636 66.2383 56.3816C66.3803 56.143 66.4652 55.8288 66.6719 55.6761C68.0399 54.6689 68.8361 53.3147 69.039 51.6664C69.2266 50.1456 68.5496 48.8027 67.8789 47.4914C67.8231 47.3816 67.553 47.3349 67.3819 47.3349C63.9219 47.326 60.4631 47.3248 57.0031 47.3374C56.7952 47.3374 56.4871 47.4081 56.3984 47.5519C55.6237 48.8002 54.8173 50.0623 54.6855 51.5642C54.5232 53.4068 55.819 54.91 57.8412 55.3656C58.0859 55.4211 58.4003 55.4287 58.5512 55.5839C58.7718 55.8111 58.9937 56.1506 58.9988 56.4459C59.0051 56.8473 58.6222 56.9167 58.2482 56.918C54.6196 56.9331 50.9922 56.9583 47.3636 56.9836C47.1582 56.9849 46.9515 57.0013 46.6764 57.0139C46.6764 57.9037 46.6663 58.7568 46.6865 59.6113C46.6903 59.7551 46.8146 59.9079 46.9097 60.0366C47.7731 61.1977 48.7303 62.3008 49.4872 63.525C50.6448 65.3955 52.4021 66.024 54.4357 66.1981C55.2332 66.2663 56.0396 66.231 56.8345 66.3105C57.6371 66.39 57.9008 66.891 57.3898 67.5158C56.7584 68.2869 56.0472 69.0316 55.2433 69.6159C53.7384 70.7127 52.0471 71.475 50.2125 71.8864C50.1364 71.9041 50.0692 71.9621 49.9982 72.0013H47.0872L47.091 72ZM62.8505 33.501C62.7947 33.501 62.739 33.5023 62.6819 33.5036C61.1491 36.7762 59.6162 40.0488 58.0326 43.4299H66.6719C65.371 40.0488 64.1108 36.7749 62.8505 33.5023V33.501Z" fill="white"/>
<path d="M2.76789e-06 55.3694C0.22695 55.2722 0.443755 55.1283 0.680845 55.0841C2.95032 54.6588 4.6556 53.3753 5.72441 51.4203C7.17231 48.7711 8.50863 46.0551 9.74607 43.3025C13.2923 35.4182 16.7637 27.5011 20.2693 19.5991C20.4899 19.1018 20.7283 18.6071 21.0148 18.1451C21.1302 17.9584 21.3876 17.7741 21.593 17.7602C21.7109 17.7526 21.9023 18.0694 21.9746 18.2701C22.7138 20.3223 23.4403 22.3782 24.1617 24.4367C27.1957 33.0846 30.2322 41.7299 33.2523 50.3828C33.6833 51.6184 34.3743 52.6761 35.2276 53.6466C35.4913 53.947 35.8057 54.2133 36.0175 54.5452C36.1924 54.8204 36.4321 55.2924 36.3192 55.459C36.1341 55.7316 35.6866 55.9676 35.3468 55.9727C32.7096 56.0093 30.0725 55.9916 27.4353 55.9828C25.7693 55.9777 24.1021 55.9714 22.4361 55.9323C22.1762 55.926 21.9214 55.743 21.664 55.642C21.8263 55.4022 21.9378 55.0892 22.1597 54.9327C24.1186 53.5482 24.968 51.0593 24.1946 48.8002C23.9576 48.1073 23.8371 47.1998 23.335 46.8237C22.8697 46.4741 21.967 46.6836 21.257 46.6811C18.4094 46.6685 15.5605 46.6988 12.7129 46.6433C12.0041 46.6294 11.6428 46.8464 11.4019 47.48C11.0963 48.2815 10.664 49.0387 10.3825 49.8477C9.68521 51.8595 10.6932 53.8233 12.7357 54.5137C13.0945 54.6348 13.4622 54.7282 13.8311 54.8141C14.2559 54.9112 14.5944 55.1788 14.479 55.5827C14.4105 55.8237 13.982 56.1153 13.7069 56.1241C11.6415 56.191 9.57364 56.2112 7.50702 56.2099C5.27051 56.2099 3.03527 56.1784 0.800025 56.1355C0.531238 56.1304 0.264986 55.9664 -0.00253296 55.8755C-0.00253296 55.7076 -0.00253296 55.5398 -0.00253296 55.3719L2.76789e-06 55.3694ZM18.2091 32.5785C16.5963 36.0341 15.0698 39.3067 13.5053 42.6601H22.1382C20.8221 39.2827 19.5492 36.0164 18.2091 32.5785Z" fill="white"/>
</g>
<defs>
<clipPath id="clip0_34_748">
<rect width="81" height="72" fill="white"/>
</clipPath>
</defs>
</svg>
