<svg width="33" height="30" viewBox="0 0 33 30" fill="none" xmlns="http://www.w3.org/2000/svg">
<path d="M19.1862 29.9991C18.6469 29.7976 18.1097 29.5857 17.6758 29.1892C17.3571 28.8974 17.0467 28.5908 16.7682 28.26C16.3514 27.7641 15.8467 27.4328 15.2305 27.2624C14.5518 27.0752 13.8741 26.8827 13.1995 26.6797C13.0678 26.6403 12.9531 26.542 12.8307 26.471C12.9262 26.3453 13.0006 26.1881 13.1225 26.1008C13.3813 25.9151 13.6654 25.7668 13.9381 25.6012C14.6417 25.1742 15.0069 24.5747 15.0053 23.7101C14.997 17.7704 15.0074 11.8301 15.012 5.89041C15.012 5.77945 15.012 5.66849 15.012 5.5691C14.3111 5.59277 13.6432 5.63904 12.9753 5.63431C10.2005 5.61433 7.66221 3.78429 6.71179 1.12232C6.61984 0.864643 6.58265 0.581198 6.55838 0.306692C6.54959 0.208354 6.63327 0.0726784 6.7154 0.00799601C6.75621 -0.0240822 6.90445 0.0469106 6.97884 0.104757C7.52895 0.53755 8.06511 0.988223 8.61987 1.41523C9.87454 2.38021 11.3203 2.78145 12.8658 2.79249C15.9593 2.81458 19.0534 2.79986 22.1475 2.7988C23.0395 2.7988 23.8536 2.53166 24.6057 2.04996C25.2549 1.63347 25.3583 1.65819 25.6191 2.38179C26.1232 3.78376 26.6088 5.19258 27.0974 6.60034C27.1439 6.73444 27.1589 6.8801 27.2049 7.09887C26.9859 7.02419 26.8314 6.98791 26.6909 6.92112C26.0995 6.64083 25.521 6.33214 24.9218 6.07026C23.6377 5.50863 22.289 5.37769 20.9078 5.49811C20.3602 5.54596 19.8122 5.59277 19.2642 5.63536C19.1257 5.64588 19.0415 5.68059 19.0426 5.84939C19.0488 7.1178 19.0488 8.3862 19.0513 9.65461C19.0513 9.67091 19.0617 9.68721 19.0674 9.70299C19.9067 9.89809 20.6629 9.34645 20.7461 8.48244C20.7652 8.28261 20.79 8.08278 20.8277 7.8861C20.8468 7.78566 20.8861 7.68206 20.9424 7.59792C21.0705 7.40756 21.2198 7.2114 21.4816 7.27661C21.7239 7.33709 21.7936 7.55795 21.8246 7.78198C21.8458 7.93711 21.8577 8.0954 21.8577 8.25211C21.8598 9.78292 21.8644 11.3137 21.853 12.8446C21.8505 13.2274 21.8174 13.6144 21.7471 13.9899C21.7187 14.1424 21.5798 14.3449 21.447 14.3896C21.2229 14.4648 21.0162 14.3012 20.9398 14.0846C20.8313 13.7754 20.7404 13.4509 20.7074 13.1259C20.6469 12.5411 20.4114 12.1588 19.6412 12.0137C19.4491 11.9774 19.2518 11.9721 19.0503 11.9522V23.1096C19.2435 22.9818 19.3881 22.8956 19.5235 22.7951C20.1056 22.3639 20.5529 21.8133 20.8515 21.1502C21.9346 18.7443 23.0173 16.3379 24.0809 13.9231C24.9233 12.0105 25.7369 10.0842 26.569 8.16639C26.6455 7.9897 26.7601 7.83036 26.8572 7.66313C26.8857 7.66629 26.9141 7.66944 26.9425 7.6726C26.9998 7.79302 27.069 7.90871 27.1129 8.03387C27.755 9.87758 28.3991 11.7202 29.0324 13.5671C29.8811 16.0403 30.7297 18.5135 31.5593 20.993C31.8238 21.7833 32.2654 22.4423 32.8232 23.0376C33.0531 23.2831 33.0552 23.4062 32.8491 23.5566C32.7804 23.6065 32.6755 23.6244 32.5872 23.6239C30.817 23.6171 29.0468 23.6065 27.2762 23.5897C27.1796 23.5887 27.083 23.5256 26.9869 23.4914C27.0448 23.392 27.0794 23.261 27.1636 23.1974C27.7209 22.7778 28.0453 22.2135 28.1279 21.5267C28.2044 20.893 27.9285 20.3335 27.6553 19.7871C27.6326 19.7414 27.5225 19.7219 27.4528 19.7219C26.0432 19.7182 24.6341 19.7177 23.2244 19.723C23.1397 19.723 23.0142 19.7524 22.9781 19.8124C22.6624 20.3325 22.3339 20.8583 22.2802 21.4841C22.2141 22.2519 22.742 22.8782 23.5659 23.0681C23.6656 23.0912 23.7937 23.0943 23.8551 23.159C23.945 23.2537 24.0354 23.3951 24.0375 23.5182C24.0401 23.6854 23.8841 23.7144 23.7317 23.7149C22.2534 23.7212 20.7755 23.7317 19.2972 23.7422C19.2135 23.7427 19.1293 23.7496 19.0172 23.7548C19.0172 24.1256 19.0131 24.4811 19.0214 24.8371C19.0229 24.897 19.0736 24.9607 19.1123 25.0143C19.4641 25.4981 19.854 25.9577 20.1624 26.4678C20.634 27.2472 21.3499 27.5091 22.1785 27.5816C22.5034 27.61 22.8319 27.5953 23.1557 27.6284C23.4827 27.6616 23.5902 27.8703 23.382 28.1306C23.1248 28.4519 22.835 28.7622 22.5075 29.0057C21.8944 29.4627 21.2053 29.7803 20.4579 29.9517C20.4269 29.9591 20.3995 29.9833 20.3706 29.9996H19.1846L19.1862 29.9991ZM25.6067 13.9578C25.584 13.9578 25.5613 13.9584 25.538 13.9589C24.9135 15.3225 24.289 16.6861 23.6439 18.0949H27.1636C26.6336 16.6861 26.1201 15.3219 25.6067 13.9584V13.9578Z" fill="#0061D6"/>
<path d="M0.00103307 23.0697C0.0934932 23.0292 0.181821 22.9693 0.278413 22.9509C1.20301 22.7736 1.89776 22.2388 2.3332 21.4243C2.92308 20.3205 3.46751 19.1888 3.97165 18.0418C5.41641 14.7567 6.83069 11.4579 8.25891 8.16542C8.34879 7.95823 8.4459 7.75209 8.56263 7.55962C8.60964 7.48179 8.7145 7.40501 8.79817 7.39923C8.84621 7.39607 8.92421 7.52806 8.95365 7.61168C9.25479 8.46675 9.55077 9.32339 9.84468 10.1811C11.0808 13.7844 12.3179 17.3866 13.5482 20.992C13.7239 21.5068 14.0054 21.9475 14.353 22.3519C14.4605 22.4771 14.5886 22.588 14.6748 22.7263C14.7461 22.841 14.8437 23.0376 14.7978 23.1071C14.7223 23.2206 14.54 23.319 14.4016 23.3211C13.3272 23.3363 12.2528 23.329 11.1784 23.3253C10.4996 23.3232 9.8204 23.3206 9.14167 23.3043C9.03578 23.3016 8.93196 23.2254 8.8271 23.1833C8.89322 23.0834 8.93867 22.953 9.02907 22.8878C9.82712 22.3109 10.1732 21.2739 9.85811 20.3325C9.76152 20.0438 9.71245 19.6657 9.5079 19.509C9.31833 19.3634 8.95055 19.4507 8.66129 19.4496C7.50115 19.4443 6.34049 19.457 5.18035 19.4338C4.8916 19.428 4.74439 19.5185 4.64625 19.7825C4.52176 20.1164 4.34563 20.4319 4.23095 20.769C3.94686 21.6073 4.35751 22.4255 5.18965 22.7132C5.33583 22.7637 5.48562 22.8026 5.63593 22.8383C5.80897 22.8788 5.94689 22.9903 5.89989 23.1586C5.87199 23.259 5.6974 23.3805 5.58531 23.3842C4.74388 23.4121 3.9014 23.4205 3.05945 23.4199C2.14828 23.4199 1.23762 23.4068 0.326968 23.3889C0.217462 23.3868 0.108989 23.3185 0 23.2806C0 23.2106 0 23.1407 0 23.0708L0.00103307 23.0697ZM7.41954 13.5735C6.7625 15.0133 6.14059 16.3769 5.50318 17.7742H9.02029C8.48412 16.3669 7.96552 15.006 7.41954 13.5735Z" fill="#0061D6"/>
</svg>
