<svg width="144" height="21" viewBox="0 0 144 21" fill="none" xmlns="http://www.w3.org/2000/svg">
<g clip-path="url(#clip0_34_718)">
<path d="M97.1778 20.023C97.1778 20.2971 97.0843 20.5293 96.8973 20.7163C96.7103 20.9033 96.4782 20.9968 96.2041 20.9968C95.93 20.9968 95.6979 20.9033 95.5109 20.7163C95.3239 20.5293 95.2303 20.2971 95.2303 20.023V5.67159C95.2303 5.45556 95.2981 5.25888 95.4367 5.08476C95.5753 4.91065 95.7527 4.78812 95.9687 4.71719C96.1847 4.65915 96.3943 4.67527 96.5975 4.75911C96.8006 4.84616 96.9586 4.99126 97.0747 5.19439L102.624 15.0802L108.173 5.19439C108.289 4.99126 108.447 4.84616 108.65 4.75911C108.853 4.67205 109.063 4.65915 109.279 4.71719C109.495 4.79135 109.669 4.91387 109.798 5.08476C109.927 5.25888 109.995 5.45233 109.995 5.67159V20.023C109.995 20.2971 109.901 20.5293 109.714 20.7163C109.527 20.9033 109.295 20.9968 109.021 20.9968C108.747 20.9968 108.515 20.9033 108.328 20.7163C108.141 20.5293 108.047 20.2971 108.047 20.023V9.42147L103.472 17.5726C103.285 17.9047 103.001 18.0723 102.627 18.0723C102.253 18.0723 101.947 17.9047 101.76 17.5726L97.1843 9.42147V20.023H97.1778Z" fill="#051314"/>
<path d="M118.684 4.78168C119.813 4.76879 120.87 4.96869 121.86 5.38786C122.85 5.80702 123.714 6.38095 124.449 7.11287C125.187 7.84156 125.768 8.69923 126.193 9.68265C126.619 10.6661 126.832 11.7204 126.832 12.8489C126.832 13.9774 126.619 15.0318 126.193 16.0152C125.768 16.9986 125.184 17.8499 124.449 18.5721C123.714 19.2944 122.85 19.8651 121.86 20.2842C120.87 20.7034 119.813 20.9065 118.684 20.8904H113.09C112.816 20.8904 112.584 20.7969 112.397 20.6099C112.21 20.4229 112.116 20.1907 112.116 19.9166V5.75865C112.116 5.48459 112.21 5.25243 112.397 5.06542C112.584 4.87841 112.816 4.78491 113.09 4.78491H118.684V4.78168ZM114.067 6.7324V18.9397H118.684C119.535 18.9526 120.338 18.801 121.089 18.485C121.841 18.1691 122.498 17.7338 123.063 17.1856C123.627 16.6375 124.072 15.9894 124.398 15.2446C124.723 14.4998 124.884 13.7034 124.884 12.8489C124.884 11.9945 124.723 11.1981 124.398 10.4533C124.072 9.70845 123.627 9.05713 123.063 8.50255C122.498 7.94474 121.841 7.50946 121.089 7.19025C120.338 6.87427 119.535 6.7195 118.684 6.73562H114.067V6.7324Z" fill="#051314"/>
<path d="M141.08 9.68266C141.08 10.2179 140.993 10.7306 140.819 11.2207C140.645 11.7108 140.403 12.1589 140.094 12.5652C139.784 12.9715 139.413 13.3197 138.988 13.6163C138.562 13.913 138.094 14.1322 137.588 14.2773L140.603 19.5233C140.732 19.7683 140.764 20.0198 140.7 20.2713C140.635 20.5228 140.48 20.7227 140.232 20.8678C140.087 20.9549 139.929 20.9968 139.755 20.9968C139.581 20.9968 139.42 20.9549 139.268 20.8678C139.117 20.7808 138.997 20.6582 138.91 20.5003L135.418 14.474H130.259V20.0231C130.259 20.2971 130.166 20.5293 129.979 20.7163C129.792 20.9033 129.56 20.9968 129.286 20.9968C129.012 20.9968 128.779 20.9033 128.592 20.7163C128.405 20.5293 128.312 20.2971 128.312 20.0231V5.778C128.312 5.50394 128.405 5.27178 128.592 5.08477C128.779 4.89776 129.012 4.80426 129.286 4.80426H129.956C130.388 4.80426 130.943 4.80103 131.614 4.79458C132.284 4.78814 133.026 4.78491 133.835 4.78491H136.221C136.901 4.78491 137.537 4.91066 138.13 5.16538C138.723 5.41688 139.236 5.76833 139.668 6.21651C140.1 6.66469 140.445 7.18381 140.696 7.77708C140.948 8.37036 141.077 9.00555 141.077 9.68588L141.08 9.68266ZM139.129 9.66008C139.129 9.25704 139.052 8.87657 138.901 8.5219C138.749 8.16722 138.543 7.85769 138.281 7.59007C138.02 7.32245 137.714 7.11287 137.359 6.96133C137.005 6.80979 136.624 6.7324 136.221 6.7324H130.259V12.5201H136.221C136.611 12.5201 136.982 12.4427 137.337 12.2911C137.691 12.1396 137.998 11.9332 138.259 11.6721C138.52 11.4109 138.73 11.1078 138.888 10.7628C139.046 10.4146 139.126 10.047 139.126 9.65686L139.129 9.66008Z" fill="#051314"/>
<path d="M1.02211 8.51219C1.70244 7.28373 2.65362 6.33578 3.87241 5.67479C5.0912 5.01381 6.48733 4.6817 8.05758 4.6817C10.0825 4.6817 11.7849 5.23628 13.1649 6.34223C14.5449 7.44817 15.4348 8.99584 15.8314 10.982H9.92768C9.58591 9.94057 8.92492 9.42145 7.9415 9.42145C7.24182 9.42145 6.68724 9.71164 6.28098 10.2856C5.87471 10.8627 5.67158 11.7107 5.67158 12.8263C5.67158 13.942 5.87471 14.7932 6.28098 15.38C6.68724 15.9668 7.24182 16.2602 7.9415 16.2602C8.94427 16.2602 9.60525 15.7411 9.92768 14.6997H15.8314C15.4348 16.6665 14.5449 18.2077 13.1649 19.3266C11.7849 20.4422 10.0825 21 8.05758 21C6.48733 21 5.0912 20.6679 3.87241 20.0069C2.65362 19.3459 1.70244 18.398 1.02211 17.1695C0.341778 15.941 0 14.4933 0 12.8296C0 11.1658 0.341778 9.74711 1.02211 8.51542V8.51219Z" fill="#AFD2D8"/>
<path d="M23.07 0V21H17.5081V0H23.07Z" fill="#AFD2D8"/>
<path d="M25.6075 8.51219C26.204 7.28373 27.0166 6.33578 28.0484 5.67479C29.0801 5.01381 30.228 4.6817 31.4952 4.6817C32.5914 4.6817 33.5394 4.89773 34.3326 5.33301C35.1257 5.7683 35.7416 6.35512 36.1769 7.09349V4.6817H41.7388V20.9968H36.1769V18.585C35.7416 19.3233 35.1225 19.9102 34.3164 20.3455C33.5136 20.7807 32.5721 20.9968 31.4919 20.9968C30.2248 20.9968 29.0737 20.6647 28.0451 20.0037C27.0133 19.3427 26.2008 18.3915 25.6043 17.1534C25.0078 15.9152 24.7112 14.4707 24.7112 12.8263C24.7112 11.1819 25.0078 9.74389 25.6043 8.51219H25.6075ZM35.3418 10.4145C34.784 9.82772 34.0972 9.5343 33.2847 9.5343C32.4721 9.5343 31.7628 9.82449 31.2146 10.3984C30.6665 10.9756 30.3924 11.7849 30.3924 12.8231C30.3924 13.8613 30.6665 14.6545 31.2146 15.2478C31.7628 15.8443 32.4528 16.1409 33.2847 16.1409C34.1165 16.1409 34.784 15.8475 35.3418 15.2607C35.8996 14.6739 36.1801 13.8613 36.1801 12.8199C36.1801 11.7784 35.8996 10.9949 35.3418 10.4081V10.4145Z" fill="#AFD2D8"/>
<path d="M69.8194 6.55503C70.9641 7.76738 71.5348 9.42145 71.5348 11.5205V20.9968H65.9728V12.2556C65.9728 11.4044 65.7374 10.7434 65.2635 10.2694C64.7895 9.79547 64.1479 9.5601 63.3353 9.5601C62.5228 9.5601 61.8779 9.79547 61.4072 10.2694C60.9332 10.7434 60.6978 11.4044 60.6978 12.2556V20.9968H55.1359V12.2556C55.1359 11.4044 54.9037 10.7434 54.4394 10.2694C53.9751 9.79547 53.3367 9.5601 52.5242 9.5601C51.7116 9.5601 51.0378 9.79547 50.567 10.2694C50.093 10.7434 49.8577 11.4044 49.8577 12.2556V20.9968H44.2957V4.6817H49.8577V6.98064C50.351 6.30031 50.9894 5.7554 51.7729 5.34914C52.5564 4.94287 53.4625 4.73974 54.4813 4.73974C55.655 4.73974 56.6997 4.99446 57.6186 5.50713C58.5343 6.01657 59.2598 6.73559 59.7886 7.6642C60.3561 6.79363 61.1041 6.09073 62.0295 5.54904C62.9549 5.01058 63.977 4.73974 65.0926 4.73974C67.0981 4.73974 68.6716 5.34591 69.8162 6.55503H69.8194Z" fill="#AFD2D8"/>
<path d="M73.9304 8.51219C74.5269 7.28373 75.3394 6.33578 76.3712 5.67479C77.403 5.01381 78.5509 4.6817 79.818 4.6817C80.9143 4.6817 81.8623 4.89773 82.6554 5.33301C83.4486 5.7683 84.0645 6.35512 84.4997 7.09349V4.6817H90.0617V20.9968H84.4997V18.585C84.0645 19.3233 83.4454 19.9102 82.6393 20.3455C81.8365 20.7807 80.895 20.9968 79.8148 20.9968C78.5476 20.9968 77.3966 20.6647 76.368 20.0037C75.3362 19.3427 74.5237 18.3915 73.9272 17.1534C73.3307 15.9152 73.0341 14.4707 73.0341 12.8263C73.0341 11.1819 73.3307 9.74389 73.9272 8.51219H73.9304ZM83.6646 10.4145C83.1068 9.82772 82.4201 9.5343 81.6075 9.5343C80.795 9.5343 80.0856 9.82449 79.5375 10.3984C78.9894 10.9756 78.7153 11.7849 78.7153 12.8231C78.7153 13.8613 78.9894 14.6545 79.5375 15.2478C80.0856 15.8443 80.7757 16.1409 81.6075 16.1409C82.4394 16.1409 83.1068 15.8475 83.6646 15.2607C84.2225 14.6739 84.503 13.8613 84.503 12.8199C84.503 11.7784 84.2225 10.9949 83.6646 10.4081V10.4145Z" fill="#AFD2D8"/>
<path d="M142.322 2.53753C142.457 2.53753 142.589 2.56332 142.712 2.61491C142.831 2.6665 142.937 2.73744 143.031 2.83094C143.124 2.92445 143.195 3.03085 143.247 3.15015C143.299 3.27268 143.324 3.40487 143.324 3.54029C143.324 3.67572 143.299 3.80791 143.247 3.93044C143.195 4.04974 143.124 4.15614 143.031 4.24964C142.937 4.34315 142.831 4.41408 142.712 4.46567C142.589 4.51726 142.457 4.54306 142.322 4.54306C142.186 4.54306 142.054 4.51726 141.931 4.46567C141.812 4.41408 141.706 4.34315 141.612 4.24964C141.519 4.15614 141.448 4.04974 141.396 3.93044C141.345 3.80791 141.319 3.67572 141.319 3.54029C141.319 3.40487 141.345 3.27268 141.396 3.15015C141.448 3.03085 141.519 2.92445 141.612 2.83094C141.706 2.73744 141.812 2.6665 141.931 2.61491C142.054 2.56332 142.186 2.53753 142.322 2.53753ZM142.322 2.30215C141.635 2.30215 141.08 2.85674 141.08 3.54352C141.08 4.2303 141.635 4.78488 142.322 4.78488C143.008 4.78488 143.563 4.2303 143.563 3.54352C143.563 2.85674 143.008 2.30215 142.322 2.30215Z" fill="#051314"/>
<path d="M142.099 4.1368H141.796V2.91156H142.438C142.525 2.91156 142.602 2.93091 142.67 2.9696C142.738 3.00829 142.789 3.05988 142.821 3.12437C142.857 3.18885 142.873 3.25979 142.873 3.34039C142.873 3.42423 142.854 3.49839 142.812 3.5661C142.77 3.63381 142.715 3.68217 142.641 3.71442L142.87 4.13358H142.531L142.325 3.76601H142.099V4.13358V4.1368ZM142.099 3.19208V3.49194H142.409C142.454 3.49194 142.492 3.47904 142.521 3.45325C142.551 3.42745 142.563 3.39198 142.563 3.34362C142.563 3.29525 142.547 3.25979 142.518 3.23077C142.489 3.20497 142.451 3.18885 142.405 3.18885H142.096L142.099 3.19208Z" fill="#051314"/>
<path d="M106.009 4.7333C106.27 4.84615 106.38 5.15246 106.251 5.40395L105.532 6.81943L103.085 11.1819C102.985 11.3593 102.833 11.4496 102.633 11.4496C102.433 11.4496 102.269 11.3593 102.169 11.1819L99.7218 6.81943L98.9738 5.42008C98.8351 5.16213 98.9512 4.84292 99.2221 4.7333L99.264 4.71717C99.4929 4.62367 99.7541 4.71717 99.8734 4.9332L102.633 9.84707L105.387 4.94288C105.509 4.72362 105.777 4.63334 106.009 4.7333Z" fill="#31869B"/>
</g>
<defs>
<clipPath id="clip0_34_718">
<rect width="143.563" height="21" fill="white"/>
</clipPath>
</defs>
</svg>
